<?xml version="1.0" encoding="utf-8"?>
<!-- Generator: Adobe Illustrator 17.0.0, SVG Export Plug-In . SVG Version: 6.00 Build 0)  -->
<!DOCTYPE svg PUBLIC "-//W3C//DTD SVG 1.1//EN" "http://www.w3.org/Graphics/SVG/1.1/DTD/svg11.dtd">
<svg version="1.1" id="Capa_1" xmlns="http://www.w3.org/2000/svg" xmlns:xlink="http://www.w3.org/1999/xlink" x="0px" y="0px"
	 width="512px" height="512px" viewBox="0 0 512 512" enable-background="new 0 0 512 512" xml:space="preserve">
<path fill="none" stroke="#000000" stroke-miterlimit="10" d="M386.137,354.807c-67.607,61.894-172.589,57.262-234.483-10.345
	c-49.515-54.086-45.81-138.071,8.276-187.586c43.269-39.612,110.457-36.648,150.069,6.621c31.69,34.615,29.318,88.365-5.297,120.055
	c-27.692,25.352-70.692,23.455-96.044-4.237c-20.281-22.154-18.764-56.554,3.39-76.835c17.723-16.225,45.243-15.011,61.468,2.712
	c12.98,14.178,12.009,36.195-2.169,49.175c-11.343,10.384-28.956,9.607-39.34-1.736c-8.307-9.074-7.686-23.164,1.388-31.472"/>
<rect x="63.974" y="76.181" fill="none" stroke="#000000" stroke-miterlimit="10" width="375" height="375"/>
<text transform="matrix(1 0 0 1 90.3794 138.5864)" font-family="'MyriadPro-Regular'" font-size="48">L</text>
<text transform="matrix(1 0 0 1 159.3447 209.2758)" font-family="'MyriadPro-Regular'" font-size="48">A</text>
<text transform="matrix(1 0 0 1 293.8275 353.2414)" font-family="'MyriadPro-Regular'" font-size="48">G</text>
<text transform="matrix(1 0 0 1 376.5866 430.8278)" font-family="'MyriadPro-Regular'" font-size="48">M</text>
</svg>
